<?xml version="1.0" standalone="no"?>
<!DOCTYPE svg PUBLIC "-//W3C//DTD SVG 20010904//EN"
 "http://www.w3.org/TR/2001/REC-SVG-20010904/DTD/svg10.dtd">
<svg version="1.0" xmlns="http://www.w3.org/2000/svg"
 width="126.000000pt" height="126.000000pt" viewBox="0 0 126.000000 126.000000"
 preserveAspectRatio="xMidYMid meet">
<metadata>
Created by potrace 1.14, written by Peter Selinger 2001-2017
</metadata>
<g transform="translate(0.000000,126.000000) scale(0.100000,-0.100000)"
fill="#000000" stroke="none">
<path d="M575 1228 c-31 -27 -44 -31 -83 -29 -69 3 -87 -14 -88 -82 l-1 -56
-64 -43 c-158 -109 -250 -302 -236 -499 27 -373 391 -611 726 -475 254 103
391 391 316 669 -35 133 -131 259 -248 326 -31 18 -59 41 -62 52 -14 43 -85
63 -85 24 0 -8 -6 -15 -14 -15 -9 0 -12 8 -9 24 6 29 -29 99 -59 120 -33 23
-53 20 -93 -16z"/>
</g>
</svg>
